<?xml version="1.0" encoding="utf-8"?>
<!-- Generator: Adobe Illustrator 23.0.6, SVG Export Plug-In . SVG Version: 6.00 Build 0)  -->
<svg version="1.1" id="Layer_1" xmlns="http://www.w3.org/2000/svg" xmlns:xlink="http://www.w3.org/1999/xlink" x="0px" y="0px"
	 viewBox="0 0 1848.8 451.5" style="enable-background:new 0 0 1848.8 451.5;" xml:space="preserve">
<style type="text/css">
	.st0{fill:#EC522B;}
</style>
<g>
	<path class="st0" d="M609.1,252.3c3.5-7.1,6.8-14.2,10.5-21.2c13.7-25.9,29.2-50.5,50.4-71c4.3-4.1,9.1-7.8,14-11.2
		c8.9-6.1,18.2-6.8,27.6-0.9c13,8.2,22.9,19.3,29.5,33.1c4.7,10,1.1,20.8-8.9,25.4c-9.5,4.3-19.7,7.2-29.4,11.2
		c-7.8,3.2-15.5,7-23,10.9c-1.4,0.7-2.7,3.4-2.5,4.9c5,27.5,12.5,54.2,25,79.2c5.5,10.9,11.6,21.4,21,29.5c4.3,3.8,9.1,6.9,15.3,5.7
		c5.5-1.1,7.3-3.2,7.3-8.8c0.3-37.6,21.8-69.7,56.7-83.7c6.6-2.6,14.3-4.1,21.3-3.9c17,0.5,26.2,13.2,22.3,29.8
		c-1.6,6.8-4.3,13.3-6.6,19.9c-6.7,19.1-6.7,38.4,0.3,57.3c9.6,25.7,29.1,38.5,55.8,40.9c14.4,1.3,28.4-0.7,40.6-9.3
		c17.3-12.2,24.4-36.5,17.7-58.3c-5.1-16.4-15.1-29.6-28.1-39.9c-18.6-14.8-38.1-28.5-57.7-42.1c-24.1-16.7-48.7-32.8-68.4-54.9
		c-21.6-24.3-32.9-52.3-29.3-85.2c4-36.4,22.5-63.5,53.8-81.9C851,12.7,880.1,7.9,910.2,8.1c26,0.2,51,4.7,74.4,16.4
		c35,17.6,55.7,52.7,53.1,91.7c-1.4,21-8.5,39.4-26.7,51.8c-12.8,8.7-27.2,11.7-42.4,9.4c-14.8-2.2-21.6-12.2-19.2-27.2
		c2-12.1,5-24.3,5.4-36.5c0.7-21.4-7.3-39.5-25.8-51.6c-21.5-14.1-53.2-8.2-65.9,13c-9.9,16.5-8.5,33.9-0.1,50.7
		c8,15.9,21.3,27.3,35.7,37.1c21.9,14.9,44.5,28.8,66.4,43.5c21.8,14.7,41.6,31.6,56.3,53.9c27.4,41.6,26.6,101.3-2.1,140.3
		c-13.3,18.1-31.1,30.8-52.1,38.1c-53.4,18.6-106.4,17.1-158.1-6.4c-22.4-10.2-40.1-26.1-52-48c-0.2-0.4-0.6-0.7-1-1.3
		c-2.5,1.8-4.8,3.7-7.3,5.3c-25,16.5-56,12.4-77.6-10.3c-14.6-15.3-24.1-33.9-32.1-53.2c-4.9-11.7-9.2-23.5-14.2-36.5
		c-3.2,8.5-6.3,16.1-8.9,23.9c-4.8,14.5-7.5,29.5-7.1,44.7c0.6,23.8-12.6,33.7-30.6,38.3c-8.3,2.1-17.1,2.4-25.7,3.1
		c-5.4,0.5-9-2.8-10.4-7.6c-1.5-5.2-2.2-10.7-3.1-16.1c-0.3-1.6-0.3-3.2-0.6-5.6c-22.3,20.1-47.9,30-77.1,29.2
		c-29.8-0.8-54-13.2-72.3-38c-11.3,20.5-26.5,35.6-50.7,37.7c-23.5,2-43.5-4.6-57.5-25.7c-14,18.7-32.2,27.6-55.4,25.9
		c-23.3-1.8-39.6-13.3-49.3-34.4c-6.2,5.2-11.7,10.8-18.1,15.1c-32.8,21.5-67.6,26.8-103.8,9.8c-25.4-11.9-40.7-33.3-47.8-59.8
		C-5.5,284.4-1,241.5,21.8,201.3c14.1-24.9,34.6-42.5,63.3-48.9c10.9-2.4,21.9-2.6,32.8-0.3c20.1,4.4,33.8,16.5,39.3,36.4
		c7.1,25.5,4.6,49.6-13.2,70.5c-6.8,8-16.1,11.7-26.6,11.6c-15.2-0.1-24-10.4-20.9-25.3c1.2-5.9,4.2-11.5,6.2-17.3
		c1.7-4.8,3.8-9.7,4.7-14.7c1-5.1-0.3-10.2-5.3-13.1c-4.8-2.8-9.7-2-14.1,1.1c-7.9,5.4-11.5,13.8-14.1,22.4
		c-7.4,24.6-8.9,49.7-5.4,75.2c1.8,13.2,5.8,25.7,14.3,36.3c18,22.2,52.8,23.4,72.5,2.5c3.8-4,7.2-8.3,10.5-12.7
		c0.9-1.2,1.4-3,1.5-4.5c2.1-31.6,3.6-63.2,6.1-94.7c2.3-28.6,5.3-57.1,8.8-85.5c3.9-32.4,8.6-64.7,13-97c0.9-6.7,3.7-12.4,7.9-17.5
		c8.9-10.7,19.8-18.8,32.9-23.6c17.3-6.4,30.4,3.8,28.4,22.2c-2.2,19.9-4.8,39.7-7.4,59.5c-3.6,28.4-7.7,56.8-11,85.2
		c-3.8,32.4-7.6,64.9-10.2,97.4c-1.7,21.9-1.4,44,3.3,65.7c0.8,3.8,2.4,7.7,4.4,11.1c3.5,6,10.5,7.3,15.9,2.8
		c5.6-4.7,8.8-10.3,9-18.4c0.6-30,1.8-59.9,3.3-89.9c0.6-11.3,3-22.4,4.1-33.7c2.1-20.4,13.7-34.2,30.3-44.6
		c4.9-3.1,10.2-5.8,15.8-7.4c14.7-4.3,26.1,4.3,25.3,19.6c-0.6,11.4-2.6,22.8-4.5,34.1c-5.1,30.2-8.1,60.5-6.5,91.1
		c0.7,13.4,3.2,26.7,5,40c0.2,1.8,1.2,3.5,2.1,5.1c4.2,7.5,12.8,9.3,18.2,2.8c4.7-5.5,7.9-12.3,11.4-18.6c0.6-1.1-0.3-3.2-0.6-4.8
		c-8.9-47.4-3.2-92.1,25.8-131.8c18.4-25.3,43.5-39.4,75.6-38.5c29.4,0.8,48.9,17.4,53.9,46.4c3.4,19.8,0.8,38.9-10.7,56
		c-7.4,11-17.8,17.4-31.4,17.4c-15.2,0-24-10.5-20.8-25.4c1.3-6.1,4.3-11.8,6.4-17.8c1.6-4.5,3.5-9,4.4-13.7
		c1-5.1-0.1-10.2-4.8-13.3c-4.9-3.2-9.9-2.3-14.6,0.8c-7.1,4.7-10.7,11.9-13,19.6c-9.7,31.9-12.1,64.1-1.8,96.3
		c9.1,28.3,36.6,41.8,64.6,32.3c7.8-2.7,14-7.6,19.3-13.7c4.3-4.9,8.5-9.8,12.6-14.9c0.8-1,1.3-2.6,1.4-4
		c2.1-39.1,3.6-78.2,6.2-117.3c3.2-49.2,6.5-98.4,14.8-147.1c4.3-25.4,25.7-47.1,51.1-51.8c13.4-2.5,23.7,5.7,23.1,19.5
		c-0.5,9.8-2.3,19.5-3.5,29.2c-6.8,54-13.7,108-20.1,162.1c-1.6,13.4-1.8,27.1-2.6,40.6C608.2,252.1,608.6,252.2,609.1,252.3z"/>
	<path class="st0" d="M1642.2,124.8c6.8-2.8,12.7-5.3,18.8-7.5c6.7-2.4,13.4-5,20.4-6.5c5.8-1.3,9.3,1.4,9.5,7.3
		c0.6,15.6-3.5,30.3-12.2,43c-5.6,8.2-15.7,10.8-25.1,13.4c-5,1.4-10.1,2.1-15.1,3.5c-1.3,0.4-3.1,2.1-3.3,3.4
		c-3.9,37.4-9.6,74.8-8,112.5c0.5,11.9,3,23.7,5,35.5c0.5,3.2,2.2,6.2,3.7,9.2c7.9,15.9,25.6,10,31.9,0.6c1.4-2.1,1-5.4,1.1-8.2
		c0.7-22.4,16-39.1,38.3-41.5c15.3-1.7,21.9,5,20.2,20.2c-1.2,11.1-1,21.9,3.9,32.3c7,14.8,23.6,22.5,39.3,18
		c7.3-2.1,12.1-6.8,13.5-14.5c2.4-12.7-1.7-23.3-10.9-32.1c-10.9-10.4-24.6-16.3-37.3-23.9c-10.3-6.1-20.9-11.9-30.1-19.5
		c-35.9-29.5-30.4-84.7,10.7-106.5c30.4-16.1,62.2-17.8,94-4.5c18,7.5,30.4,20.6,31.9,41.2c1.9,26.7-20.9,45.7-45.5,44.3
		c-9.8-0.5-13.5-5.5-12.3-15.3c0.9-7.8,2.4-15.4-0.6-23.2c-3.2-8.3-9.7-13.1-19.1-13.4c-11.3-0.4-19.8,4-23.1,12.2
		c-3.2,7.9-1.2,15.4,4.8,20.5c7.2,6.2,15.5,11.4,23.7,16.4c15.5,9.4,32.1,17.2,46.7,27.7c26.5,19,36.1,45.8,30,77.7
		c-4.1,21.2-16.6,36.5-36.1,44.9c-36,15.4-72.1,14.6-107-3.8c-7.7-4-14.1-10.5-21.6-16.2c-14.7,17.5-33.9,27.6-58.3,26
		c-24.3-1.5-42.9-12.1-54.7-34.4c-1.2,1.4-2.1,2.5-3,3.6c-16.4,22.3-39,31.4-66,30.9c-15-0.3-29.5-3.6-42-12.4
		c-21.3-15-27.8-36.4-24.8-61c4.7-37.4,21.6-69.6,43.9-99.4c0.5-0.7,1-1.3,1.5-2c0.1-0.2,0.1-0.6,0.1-1.2
		c-9.8,1.9-19.6,3.8-29.4,5.7c-2.3,0.4-4.6,0.9-6.9,1.2c-8.3,1.4-8.4,1.3-10,9.4c-6.4,31.2-13.7,62.1-25.7,91.7
		c-7.5,18.5-16.5,36-30.3,50.7c-23.8,25.4-72.6,22.6-91.5-6.5c-0.4-0.7-1-1.2-1.4-1.7c-4.8,4.6-9.2,9.4-14.2,13.5
		c-24.1,19.5-76.4,18.8-92.7-26.1c-7.8-21.4-8.5-43.3-6.4-65.6c2.2-22.5,5.1-45,7.3-67.5c0.5-4.7,0-9.7-0.8-14.4
		c-1.9-11.2-11-15.3-20.2-8.6c-4.5,3.3-8.4,8.2-11,13.2c-7.7,15-10.1,31.6-11.9,48.2c-3.3,29.9-3.8,59.9-2.3,89.9
		c1.2,23.9-11,34.8-30.4,39.8c-8.3,2.1-17.1,2.4-25.7,3.1c-4.3,0.4-8.2-1.6-9.5-5.9c-1.8-5.8-3.9-11.9-3.9-17.9
		c0.1-31.3,0-62.7,1.5-93.9c2-39.9,4.9-79.8,8.5-119.6c3.3-36.8,7.5-73.6,12-110.3c2.9-23.6,22.1-44,45.2-49.8
		c14.3-3.6,25.3,4.8,24.6,19.6c-0.5,10.5-2.1,20.9-3.4,31.3c-5.2,43.3-10.5,86.6-15.8,129.9c-0.1,1-0.1,1.9-0.3,4.2
		c3-3.6,5.2-6.4,7.6-9c12.1-13.2,26.2-23.5,44.4-25.8c18-2.2,34.4,1.1,45.3,17.5c5.8,8.8,8.1,18.9,9.2,29.3
		c2.3,21.6-0.5,42.9-2.6,64.3c-2,20.4-3.5,40.9-0.4,61.3c1,6.3,3.2,12.7,6.2,18.2c4.6,8.3,13.7,8.7,20,1.6
		c4.8-5.4,6.9-11.4,6.6-19.1c-1.1-42.6,1.4-84.9,8.7-126.9c3.1-17.8,14.7-29,28.9-38.2c5.1-3.3,10.9-6,16.7-7.6
		c13.9-3.8,25.3,4.9,24.5,19.2c-0.8,13.1-3.3,26.1-5.4,39c-6.2,38.2-8.2,76.5-3.5,115c0.7,5.8,2.5,11.8,5.2,17
		c4.1,8.1,12,8.6,17.7,1.6c10.4-12.5,17-27,22.3-42.2c7.9-22.7,12.7-46.2,16.4-70.2c-3.1-1-6.1-1.8-9-3c-18.6-7.8-29.5-24.5-27.4-46
		c2.9-29.8,18.7-51.7,46.1-64c15.1-6.8,26.2-0.3,29.6,16c3,14.3,0.9,28.5-0.4,42.8c-0.3,2.8-0.5,5.6-0.8,9
		c11.3-2.5,21.2-6.7,30.1-12.9c10.8-7.5,20.9-15.9,31.3-23.9c2.4-1.8,4.7-3.8,7.2-5.4c8.6-5.4,14.9-4.6,20.9,3.5
		c4.2,5.7,7.2,12.2,10.1,17.2c8.5-4.6,17.4-9.7,26.5-14.3c3.2-1.6,5.1-3.1,5.5-7.1c2.2-19.7,5.3-39.3,7.5-59
		c1.4-12.6,7.9-22,17-30.1c7.8-6.9,16.4-12.5,26.4-15.9c15.3-5.2,27.8,3.6,26.8,19.7c-0.8,13.6-2.9,27.1-4.4,40.7
		C1644.6,106.9,1643.5,115.1,1642.2,124.8z M1543.2,179.6c-0.7,10.7-1.7,14.9-6.8,25c-4.1,8-8.3,16-12.5,23.9
		c-9.5,17.9-17.7,36.2-21.4,56.3c-2.6,14.3-3.8,28.8,0.4,43.1c3.1,10.5,9.6,17.8,20.8,19.9c10,1.9,19.1,0,25.3-8.8
		c6.1-8.5,9.9-17.4,10.2-28.7c1-32.9,3.9-65.8,6.2-98.7c0.6-8.9,1.6-17.8,2.4-26.2C1559.5,183.3,1551.5,181.5,1543.2,179.6z"/>
	<path class="st0" d="M370.7,69.8c-0.9,18.4-8.8,37.7-28.2,51.2c-6.7,4.7-14.1,7.3-22.5,6.9c-8.7-0.4-16-3.8-19.9-11.3
		c-9.7-18.9-12.2-38.4-1-57.6c9.4-16.1,32-25.6,50.1-22C363.7,39.8,371.3,49.8,370.7,69.8z"/>
	<path class="st0" d="M1294.6,84.7c-1.1-33.4,32.5-52.4,56.8-47.9c13.3,2.5,21.7,10.9,22,25c0.5,24.4-7.6,45.2-28.5,59.3
		c-10.8,7.3-22.6,10-34.7,2.8c-7.8-4.7-11.2-12.6-13.1-21C1295.8,97,1295.4,90.8,1294.6,84.7z"/>
</g>
</svg>
